<svg xmlns="http://www.w3.org/2000/svg" width="48" height="48"><g fill="#fff" transform="translate(7 -1012.362)"><circle cx="657.054" cy="437.094" r="15.268" fill="#9257a2" fill-rule="evenodd" transform="translate(-1015.842 349.28) scale(1.57193)"/><path fill="#6c4676" style="line-height:normal;text-indent:0;text-align:start;text-decoration-line:none;text-transform:none;block-progression:tb" d="M29.994 47.207a24 24 0 0 0 1.098-.28 24 24 0 0 0 2.254-.822 24 24 0 0 0 2.16-1.042 24 24 0 0 0 2.045-1.254 24 24 0 0 0 1.91-1.454 24 24 0 0 0 1.756-1.634 24 24 0 0 0 1.584-1.803 24 24 0 0 0 1.394-1.951 24 24 0 0 0 1.194-2.08 24 24 0 0 0 .98-2.19 24 24 0 0 0 .756-2.277 24 24 0 0 0 .525-2.34 24 24 0 0 0 .178-1.467l-12.47-12.47A.5.5 0 0 0 35 14H13c-.286 0-.5.214-.5.5V26l.998.998H12.5v2.5c0 .143.053.268.143.357l17.351 17.352z" color="#000" font-family="sans-serif" font-weight="400" transform="translate(-7 1012.362)"/><path style="line-height:normal;text-indent:0;text-align:start;text-decoration-line:none;text-transform:none;block-progression:tb" d="M5.5 6h22c.286 0 .5.214.5.5V18H5V6.5c0-.286.214-.5.5-.5Zm6.69 2.002c-.124.005-.268.02-.419.059-.15.038-.322.1-.478.246a.898.898 0 0 0-.266.627v2.11c-.002.007 0 .006-.006.015a2.23 2.23 0 0 1-.17.199c-.072.078-.15.158-.226.246a1.18 1.18 0 0 0-.113.152c-.04.063-.104.139-.104.334 0 .198.074.288.12.352.044.064.083.105.122.144.078.08.154.145.221.211.134.132.166.257.166.174v2.2c0 .257.138.518.309.658.17.14.347.193.502.226.31.067.617.043.634.043v-1c-.136 0-.3.01-.425-.021-.016 0-.008 0-.02-.01v-2.1c0-.465-.285-.71-.465-.887-.007-.01-.009-.011-.015-.017.01-.012.016-.015.027-.027.082-.09.173-.189.256-.307.083-.118.187-.25.187-.512v-2.09a2.52 2.52 0 0 1 .455-.029v-.996c-.067 0-.17-.005-.293 0zm8.363.002v.998c.158 0 .35-.002.455.027v2.09c0 .263.104.394.187.512s.174.218.256.306l.028.03c-.008.01-.01.01-.018.015-.18.177-.463.422-.463.887v2.1c-.012 0-.004.001-.021.011-.125.027-.288.022-.424.022v1c.017 0 .325.024.634-.043.155-.033.33-.087.5-.227a.9.9 0 0 0 .311-.658v-2.199c0 .083.03-.042.164-.174.067-.066.143-.132.22-.21.04-.04.08-.082.126-.145.045-.064.117-.154.117-.352 0-.196-.062-.27-.102-.334a1.21 1.21 0 0 0-.113-.152c-.075-.088-.154-.168-.226-.246a2.304 2.304 0 0 1-.17-.2c-.006-.008-.004-.007-.006-.013V8.938a.9.9 0 0 0-.268-.627 1.044 1.044 0 0 0-.476-.247c-.302-.076-.577-.06-.711-.06zM14 10v1h5v-1zm0 3v1h5v-1zm-9 6h23v2.5c0 .286-.214.5-.5.5h-22a.488.488 0 0 1-.5-.5Zm11.5.867a.758.758 0 0 0-.75.75c0 .408.342.75.75.75s.75-.342.75-.75a.758.758 0 0 0-.75-.75zm-2.38 3.15h4.808c-.246 1.167-.166 2.153.261 2.881.283.482.713.757 1.104 1.102h-7.62c.478-.429 1.031-.805 1.32-1.357.385-.74.396-1.65.126-2.625z" color="#000" font-family="sans-serif" font-weight="400" overflow="visible" transform="translate(.5 1020.362)"/></g></svg>